<?xml version="1.0" encoding="UTF-8"?>
<svg version="1.1" xmlns="http://www.w3.org/2000/svg" width="32" height="32">
<path d="M0 0 C10.56 0 21.12 0 32 0 C32 10.56 32 21.12 32 32 C21.44 32 10.88 32 0 32 C0 21.44 0 10.88 0 0 Z " fill="#FDFDFE" transform="translate(0,0)"/>
<path d="M0 0 C0.66 0.33 1.32 0.66 2 1 C2 1.66 2 2.32 2 3 C2.66 3.33 3.32 3.66 4 4 C4.44041451 9.37305699 4.44041451 9.37305699 4 12 C1.5 14 1.5 14 -1 15 C0.65 15.33 2.3 15.66 4 16 C0.36201572 18.37868203 -1.84929048 17.76237522 -6 17 C-6.886875 17.185625 -7.77375 17.37125 -8.6875 17.5625 C-11 18 -11 18 -14 16 C-12.35 15.67 -10.7 15.34 -9 15 C-9 14.67 -9 14.34 -9 14 C-7.35 13.67 -5.7 13.34 -4 13 C-6.97 12.505 -6.97 12.505 -10 12 C-10 11.67 -10 11.34 -10 11 C-4.555 10.505 -4.555 10.505 1 10 C1.26352314 5.26352314 1.26352314 5.26352314 0 2 C-1.98 2 -3.96 2 -6 2 C-4.35 2.33 -2.7 2.66 -1 3 C-1.66 4.98 -2.32 6.96 -3 9 C-3.33 8.34 -3.66 7.68 -4 7 C-4.66 7 -5.32 7 -6 7 C-6.33 7.66 -6.66 8.32 -7 9 C-7.99 7.35 -8.98 5.7 -10 4 C-10.33 6.31 -10.66 8.62 -11 11 C-11.99 11.33 -12.98 11.66 -14 12 C-14.61364554 4.75898264 -14.61364554 4.75898264 -11.625 1.0625 C-7.03143856 -2.54672685 -5.51215209 -1.77176317 0 0 Z " fill="#BFDFE2" transform="translate(21,8)"/>
<path d="M0 0 C3.57763189 -0.32523926 5.39542581 -0.42956587 8.375 1.6875 C10.27258004 4.38790237 10.35882213 5.77060081 10 9 C8.02 9.66 6.04 10.32 4 11 C4.66 11.66 5.32 12.32 6 13 C3.36 13 0.72 13 -2 13 C-3.75547734 10.3151523 -4.00627277 9.07997785 -3.75 5.8125 C-3.5025 4.884375 -3.255 3.95625 -3 3 C-2.34 2.67 -1.68 2.34 -1 2 C-0.34 3.32 0.32 4.64 1 6 C2.32 6 3.64 6 5 6 C5.66 4.68 6.32 3.36 7 2 C4.69 1.67 2.38 1.34 0 1 C0 0.67 0 0.34 0 0 Z " fill="#EEF6F8" transform="translate(13,9)"/>
<path d="M0 0 C3.3 0.99 6.6 1.98 10 3 C9.34 4.98 8.68 6.96 8 9 C7.67 8.34 7.34 7.68 7 7 C6.34 7 5.68 7 5 7 C4.67 7.66 4.34 8.32 4 9 C3.01 7.35 2.02 5.7 1 4 C0.67 6.31 0.34 8.62 0 11 C-0.99 11.33 -1.98 11.66 -3 12 C-3.375 4.5 -3.375 4.5 0 0 Z " fill="#ABCCDE" transform="translate(10,8)"/>
<path d="M0 0 C3.57763189 -0.32523926 5.39542581 -0.42956587 8.375 1.6875 C10.27258004 4.38790237 10.35882213 5.77060081 10 9 C6.93109813 10.53445094 4.29905734 9.54984289 1 9 C1.33 8.01 1.66 7.02 2 6 C2.99 6 3.98 6 5 6 C5.66 4.68 6.32 3.36 7 2 C4.69 1.67 2.38 1.34 0 1 C0 0.67 0 0.34 0 0 Z " fill="#DCF2F8" transform="translate(13,9)"/>
<path d="M0 0 C6.75 1.875 6.75 1.875 9 3 C9 3.66 9 4.32 9 5 C9.66 5.33 10.32 5.66 11 6 C11 8.31 11 10.62 11 13 C10.34 13 9.68 13 9 13 C8.34 10.03 7.68 7.06 7 4 C3.7 3.67 0.4 3.34 -3 3 C-2.01 2.01 -1.02 1.02 0 0 Z " fill="#A5C3D7" transform="translate(14,6)"/>
<path d="M0 0 C2.31 0 4.62 0 7 0 C6.34 1.98 5.68 3.96 5 6 C4.67 5.34 4.34 4.68 4 4 C3.34 4 2.68 4 2 4 C1.67 4.66 1.34 5.32 1 6 C0.67 4.02 0.34 2.04 0 0 Z " fill="#41BCED" transform="translate(13,11)"/>
<path d="M0 0 C-5.46809845 2.4606443 -8.48727081 1.71084699 -14 0 C-14 -0.33 -14 -0.66 -14 -1 C-12.23086176 -1.22226864 -10.45955629 -1.42733873 -8.6875 -1.625 C-7.70136719 -1.74101562 -6.71523438 -1.85703125 -5.69921875 -1.9765625 C-3 -2 -3 -2 0 0 Z " fill="#B6CEDD" transform="translate(25,20)"/>
</svg>
